<svg width="103" height="87" viewBox="0 0 103 87" fill="none" xmlns="http://www.w3.org/2000/svg">
<ellipse cx="51.5" cy="43.26" rx="51.5" ry="43.26" fill="#751212" fill-opacity="0.41"/>
<path d="M19.6914 19.9375L23.5 31.8086L27.2969 19.9375H32.7109V37H28.5859V33.0156L28.9844 24.8594L24.8594 37H22.1406L18.0039 24.8477L18.4023 33.0156V37H14.2891V19.9375H19.6914Z" fill="#F0DFDF"/>
<path d="M34.6562 30.543C34.6562 29.2773 34.9023 28.1523 35.3945 27.168C35.8867 26.1758 36.5938 25.4141 37.5156 24.8828C38.4375 24.3516 39.5195 24.0859 40.7617 24.0859C42.6602 24.0859 44.1562 24.6758 45.25 25.8555C46.3438 27.0273 46.8906 28.625 46.8906 30.6484V30.7891C46.8906 32.7656 46.3398 34.3359 45.2383 35.5C44.1445 36.6562 42.6602 37.2344 40.7852 37.2344C38.9805 37.2344 37.5312 36.6953 36.4375 35.6172C35.3438 34.5312 34.7539 33.0625 34.668 31.2109L34.6562 30.543ZM38.6055 30.7891C38.6055 31.9609 38.7891 32.8203 39.1562 33.3672C39.5234 33.9141 40.0664 34.1875 40.7852 34.1875C42.1914 34.1875 42.9102 33.1055 42.9414 30.9414V30.543C42.9414 28.2695 42.2148 27.1328 40.7617 27.1328C39.4414 27.1328 38.7266 28.1133 38.6172 30.0742L38.6055 30.7891Z" fill="#F0DFDF"/>
<path d="M53.5 32.3008L55.5039 24.3203H59.6641L55.5273 37H51.4961L47.3594 24.3203H51.5312L53.5 32.3008Z" fill="#F0DFDF"/>
<path d="M65.0078 37H61.0469V24.3203H65.0078V37ZM60.8125 21.0508C60.8125 20.4883 61.0156 20.0273 61.4219 19.668C61.8281 19.3086 62.3555 19.1289 63.0039 19.1289C63.6523 19.1289 64.1797 19.3086 64.5859 19.668C64.9922 20.0273 65.1953 20.4883 65.1953 21.0508C65.1953 21.6133 64.9922 22.0742 64.5859 22.4336C64.1797 22.793 63.6523 22.9727 63.0039 22.9727C62.3555 22.9727 61.8281 22.793 61.4219 22.4336C61.0156 22.0742 60.8125 21.6133 60.8125 21.0508Z" fill="#F0DFDF"/>
<path d="M73.5859 37.2344C71.6406 37.2344 70.0664 36.6562 68.8633 35.5C67.6602 34.3359 67.0586 32.8242 67.0586 30.9648V30.6367C67.0586 29.3398 67.2969 28.1953 67.7734 27.2031C68.2578 26.2109 68.9609 25.4453 69.8828 24.9062C70.8047 24.3594 71.8984 24.0859 73.1641 24.0859C74.9453 24.0859 76.3516 24.6406 77.3828 25.75C78.4141 26.8516 78.9297 28.3906 78.9297 30.3672V31.9023H71.0781C71.2188 32.6133 71.5273 33.1719 72.0039 33.5781C72.4805 33.9844 73.0977 34.1875 73.8555 34.1875C75.1055 34.1875 76.082 33.75 76.7852 32.875L78.5898 35.0078C78.0977 35.6875 77.3984 36.2305 76.4922 36.6367C75.5938 37.0352 74.625 37.2344 73.5859 37.2344ZM73.1406 27.1328C71.9844 27.1328 71.2969 27.8984 71.0781 29.4297H75.0625V29.125C75.0781 28.4922 74.918 28.0039 74.582 27.6602C74.2461 27.3086 73.7656 27.1328 73.1406 27.1328Z" fill="#F0DFDF"/>
<path d="M23.0898 60.4648C23.0898 59.8633 22.875 59.3945 22.4453 59.0586C22.0234 58.7227 21.2773 58.375 20.207 58.0156C19.1367 57.6562 18.2617 57.3086 17.582 56.9727C15.3711 55.8867 14.2656 54.3945 14.2656 52.4961C14.2656 51.5508 14.5391 50.7188 15.0859 50C15.6406 49.2734 16.4219 48.7109 17.4297 48.3125C18.4375 47.9062 19.5703 47.7031 20.8281 47.7031C22.0547 47.7031 23.1523 47.9219 24.1211 48.3594C25.0977 48.7969 25.8555 49.4219 26.3945 50.2344C26.9336 51.0391 27.2031 51.9609 27.2031 53H23.1016C23.1016 52.3047 22.8867 51.7656 22.457 51.3828C22.0352 51 21.4609 50.8086 20.7344 50.8086C20 50.8086 19.418 50.9727 18.9883 51.3008C18.5664 51.6211 18.3555 52.0312 18.3555 52.5312C18.3555 52.9688 18.5898 53.3672 19.0586 53.7266C19.5273 54.0781 20.3516 54.4453 21.5312 54.8281C22.7109 55.2031 23.6797 55.6094 24.4375 56.0469C26.2812 57.1094 27.2031 58.5742 27.2031 60.4414C27.2031 61.9336 26.6406 63.1055 25.5156 63.957C24.3906 64.8086 22.8477 65.2344 20.8867 65.2344C19.5039 65.2344 18.25 64.9883 17.125 64.4961C16.0078 63.9961 15.1641 63.3164 14.5938 62.457C14.0312 61.5898 13.75 60.5938 13.75 59.4688H17.875C17.875 60.3828 18.1094 61.0586 18.5781 61.4961C19.0547 61.9258 19.8242 62.1406 20.8867 62.1406C21.5664 62.1406 22.1016 61.9961 22.4922 61.707C22.8906 61.4102 23.0898 60.9961 23.0898 60.4648Z" fill="#F0DFDF"/>
<path d="M33.7305 49.168V52.3203H35.8164V55.0625H33.7305V60.8633C33.7305 61.3398 33.8164 61.6719 33.9883 61.8594C34.1602 62.0469 34.5 62.1406 35.0078 62.1406C35.3984 62.1406 35.7266 62.1172 35.9922 62.0703V64.8945C35.2812 65.1211 34.5391 65.2344 33.7656 65.2344C32.4062 65.2344 31.4023 64.9141 30.7539 64.2734C30.1055 63.6328 29.7812 62.6602 29.7812 61.3555V55.0625H28.1641V52.3203H29.7812V49.168H33.7305Z" fill="#F0DFDF"/>
<path d="M45.0508 55.8945L43.75 55.8008C42.5078 55.8008 41.7109 56.1914 41.3594 56.9727V65H37.4102V52.3203H41.1133L41.2422 53.9492C41.9062 52.707 42.832 52.0859 44.0195 52.0859C44.4414 52.0859 44.8086 52.1328 45.1211 52.2266L45.0508 55.8945Z" fill="#F0DFDF"/>
<path d="M52.375 65.2344C50.4297 65.2344 48.8555 64.6562 47.6523 63.5C46.4492 62.3359 45.8477 60.8242 45.8477 58.9648V58.6367C45.8477 57.3398 46.0859 56.1953 46.5625 55.2031C47.0469 54.2109 47.75 53.4453 48.6719 52.9062C49.5938 52.3594 50.6875 52.0859 51.9531 52.0859C53.7344 52.0859 55.1406 52.6406 56.1719 53.75C57.2031 54.8516 57.7188 56.3906 57.7188 58.3672V59.9023H49.8672C50.0078 60.6133 50.3164 61.1719 50.793 61.5781C51.2695 61.9844 51.8867 62.1875 52.6445 62.1875C53.8945 62.1875 54.8711 61.75 55.5742 60.875L57.3789 63.0078C56.8867 63.6875 56.1875 64.2305 55.2812 64.6367C54.3828 65.0352 53.4141 65.2344 52.375 65.2344ZM51.9297 55.1328C50.7734 55.1328 50.0859 55.8984 49.8672 57.4297H53.8516V57.125C53.8672 56.4922 53.707 56.0039 53.3711 55.6602C53.0352 55.3086 52.5547 55.1328 51.9297 55.1328Z" fill="#F0DFDF"/>
<path d="M66.4609 65C66.3203 64.7422 66.1953 64.3633 66.0859 63.8633C65.3594 64.7773 64.3438 65.2344 63.0391 65.2344C61.8438 65.2344 60.8281 64.875 59.9922 64.1562C59.1562 63.4297 58.7383 62.5195 58.7383 61.4258C58.7383 60.0508 59.2461 59.0117 60.2617 58.3086C61.2773 57.6055 62.7539 57.2539 64.6914 57.2539H65.9102V56.5859C65.9102 55.4219 65.4062 54.8398 64.3984 54.8398C63.4609 54.8398 62.9922 55.3008 62.9922 56.2227H59.043C59.043 54.9961 59.5625 54 60.6016 53.2344C61.6484 52.4688 62.9805 52.0859 64.5977 52.0859C66.2148 52.0859 67.4922 52.4805 68.4297 53.2695C69.3672 54.0586 69.8477 55.1406 69.8711 56.5156V62.1289C69.8867 63.293 70.0664 64.1836 70.4102 64.8008V65H66.4609ZM63.9883 62.4219C64.4805 62.4219 64.8867 62.3164 65.207 62.1055C65.5352 61.8945 65.7695 61.6562 65.9102 61.3906V59.3633H64.7617C63.3867 59.3633 62.6992 59.9805 62.6992 61.2148C62.6992 61.5742 62.8203 61.8672 63.0625 62.0938C63.3047 62.3125 63.6133 62.4219 63.9883 62.4219Z" fill="#F0DFDF"/>
<path d="M75.8008 52.3203L75.9297 53.8086C76.8281 52.6602 78.0352 52.0859 79.5508 52.0859C81.1523 52.0859 82.2344 52.7227 82.7969 53.9961C83.6562 52.7227 84.8984 52.0859 86.5234 52.0859C89.0938 52.0859 90.4141 53.6406 90.4844 56.75V65H86.5234V56.9961C86.5234 56.3477 86.4141 55.875 86.1953 55.5781C85.9766 55.2812 85.5781 55.1328 85 55.1328C84.2188 55.1328 83.6367 55.4805 83.2539 56.1758L83.2656 56.3398V65H79.3047V57.0195C79.3047 56.3555 79.1992 55.875 78.9883 55.5781C78.7773 55.2812 78.375 55.1328 77.7812 55.1328C77.0234 55.1328 76.4453 55.4805 76.0469 56.1758V65H72.0977V52.3203H75.8008Z" fill="#F0DFDF"/>
</svg>
